<mxfile host="app.diagrams.net" modified="2023-08-22T05:02:22.116Z" agent="Mozilla/5.0 (Windows NT 10.0; Win64; x64) AppleWebKit/537.36 (KHTML, like Gecko) Chrome/116.0.0.0 Safari/537.36" version="21.6.8" etag="4Eb_nWeyDa-ajlg6cXT2" type="github">
  <diagram name="Страница — 1" id="WHzNaa2vAF3_SvquMsoz">
    <mxGraphModel>
      <root>
        <mxCell id="0" />
        <mxCell id="1" parent="0" />
      </root>
    </mxGraphModel>
  </diagram>
</mxfile>
